<?xml version="1.0" standalone="no"?>
<!DOCTYPE svg PUBLIC "-//W3C//DTD SVG 20010904//EN"
 "http://www.w3.org/TR/2001/REC-SVG-20010904/DTD/svg10.dtd">
<svg version="1.0" xmlns="http://www.w3.org/2000/svg"
 width="460.000000pt" height="460.000000pt" viewBox="0 0 460.000000 460.000000"
 preserveAspectRatio="xMidYMid meet">
<metadata>
Created by potrace 1.11, written by Peter Selinger 2001-2013
</metadata>
<g transform="translate(0.000000,460.000000) scale(0.100000,-0.100000)"
fill="#000000" stroke="none">
<path d="M1690 4531 c-25 -9 -59 -29 -75 -44 -49 -43 -115 -104 -202 -185 -44
-43 -127 -120 -183 -172 -281 -263 -301 -285 -320 -338 -10 -27 -21 -77 -25
-109 -3 -32 -13 -92 -22 -133 -8 -41 -17 -95 -19 -120 -2 -25 -9 -84 -17 -131
-19 -118 -18 -120 64 -294 20 -44 58 -125 84 -180 49 -104 92 -195 167 -355
25 -52 68 -143 96 -201 29 -58 52 -108 52 -112 0 -7 52 -125 69 -157 5 -9 12
-31 16 -50 10 -50 98 -150 263 -302 l40 -37 -2 -282 -1 -282 -35 -2 c-54 -4
-136 -37 -183 -73 -23 -18 -87 -61 -142 -97 -55 -35 -106 -69 -112 -75 -7 -6
-30 -20 -50 -32 -21 -12 -60 -38 -88 -58 -27 -21 -63 -44 -80 -53 -16 -8 -43
-27 -60 -41 -16 -14 -43 -33 -60 -41 -16 -9 -59 -36 -95 -60 -120 -83 -263
-179 -298 -200 -10 -5 -38 -24 -63 -42 -25 -18 -56 -37 -70 -43 -13 -5 -44
-26 -69 -45 -25 -19 -55 -39 -67 -44 -27 -12 -63 -51 -63 -67 0 -9 12 -8 43 6
48 21 106 35 187 45 65 8 3822 9 3865 1 113 -21 140 -28 178 -45 23 -11 44
-18 46 -15 8 8 -31 55 -59 69 -17 9 -28 19 -26 24 3 4 -1 8 -8 8 -7 0 -33 13
-57 29 -24 17 -72 49 -106 72 -34 23 -64 42 -67 42 -3 0 -26 15 -52 33 -45 31
-117 79 -185 124 -19 12 -38 26 -44 30 -5 5 -28 20 -50 33 -22 13 -42 27 -45
31 -3 3 -18 13 -35 22 -16 8 -40 23 -52 34 -53 45 -62 51 -66 47 -2 -2 -31 16
-64 40 -34 24 -74 51 -91 60 -17 9 -36 22 -44 29 -7 7 -26 22 -43 32 -85 53
-204 132 -235 156 -30 23 -147 70 -168 68 -43 -6 -41 -15 -42 286 0 235 3 287
14 291 25 10 206 196 246 253 21 31 46 79 56 106 9 28 34 88 57 135 22 47 58
123 80 170 21 47 59 126 82 175 24 50 65 135 90 190 80 171 121 257 169 357
25 53 46 102 46 110 0 8 4 18 10 24 17 17 14 112 -6 219 -2 11 -6 49 -9 85 -3
36 -8 72 -10 80 -4 14 -20 109 -31 189 -3 18 -15 54 -28 80 -27 51 -86 112
-407 411 -55 52 -135 127 -178 167 -127 118 -154 139 -205 156 -44 15 -114 17
-605 17 -508 -1 -560 -2 -601 -19z m1413 -1481 c3 -3 8 -36 12 -75 3 -38 8
-81 10 -95 17 -118 16 -138 -7 -154 -34 -24 -147 -99 -166 -111 -10 -5 -41
-27 -69 -49 -35 -25 -59 -36 -70 -32 -10 4 -14 4 -11 0 9 -9 -52 -57 -136
-107 -17 -11 -40 -27 -51 -37 -21 -18 -135 -95 -214 -144 -25 -15 -59 -39 -75
-52 -26 -23 -30 -24 -50 -9 -11 8 -62 42 -113 75 -50 34 -97 67 -103 75 -7 8
-16 13 -20 10 -4 -2 -25 11 -48 30 -22 19 -43 35 -47 35 -8 0 -123 78 -143 97
-6 6 -22 15 -34 19 -12 4 -29 13 -37 21 -8 9 -53 40 -100 71 -47 31 -91 63
-98 71 -7 9 -13 12 -13 8 0 -5 -14 0 -31 10 -28 17 -30 21 -24 63 3 25 7 61 9
80 14 135 22 203 25 206 5 3 1601 -2 1604 -6z"/>
</g>
</svg>
